<svg width="499" height="409" viewBox="0 0 499 409" fill="none" xmlns="http://www.w3.org/2000/svg">
<g clip-path="url(#clip0_4_266)">
<rect x="243.5" y="85.5" width="254" height="185" fill="black" stroke="black" stroke-width="3"/>
<rect x="243.5" y="56.5" width="254" height="31" fill="black" stroke="black" stroke-width="3"/>
<rect x="237.5" y="78.5" width="254" height="186" fill="white" stroke="black" stroke-width="3"/>
<rect x="237.5" y="49.5" width="254" height="31" fill="white" stroke="black" stroke-width="3"/>
<rect x="249.5" y="107.5" width="25" height="25" fill="#9F9F9F" stroke="black" stroke-width="3"/>
<rect x="249.5" y="154.5" width="25" height="25" fill="#9F9F9F" stroke="black" stroke-width="3"/>
<rect x="249.5" y="201.5" width="25" height="25" fill="#9F9F9F" stroke="black" stroke-width="3"/>
<rect x="463.5" y="56.5" width="17" height="17" fill="#30EA85" stroke="black" stroke-width="3"/>
<rect x="439.5" y="56.5" width="17" height="17" fill="#DD7DFF" stroke="black" stroke-width="3"/>
<rect x="415.5" y="56.5" width="17" height="17" fill="#38DBFF" stroke="black" stroke-width="3"/>
<circle cx="369" cy="168" r="63.5" fill="#DD7DFF" stroke="black" stroke-width="3"/>
<rect x="364.5" y="98.5" width="12" height="12" fill="#30EA85" stroke="black" stroke-width="3"/>
<rect x="301.5" y="161.5" width="12" height="12" fill="#30EA85" stroke="black" stroke-width="3"/>
<rect x="364.5" y="224.5" width="12" height="12" fill="#30EA85" stroke="black" stroke-width="3"/>
<rect x="431" y="107" width="2" height="125" fill="black" stroke="black" stroke-width="2"/>
<rect x="425.5" y="164.5" width="12" height="12" fill="#30EA85" stroke="black" stroke-width="3"/>
<circle cx="432" cy="230" r="6.5" fill="#DD7DFF" stroke="black" stroke-width="3"/>
<circle cx="432" cy="105" r="6.5" fill="#DD7DFF" stroke="black" stroke-width="3"/>
<rect x="291.5" y="31.5" width="97" height="97" fill="black" stroke="black" stroke-width="3"/>
<rect x="7.5" y="37.5" width="254" height="370" fill="black" stroke="black" stroke-width="3"/>
<rect x="7.5" y="8.5" width="254" height="31" fill="black" stroke="black" stroke-width="3"/>
<rect x="1.5" y="30.5" width="254" height="370" fill="white" stroke="black" stroke-width="3"/>
<rect x="1.5" y="1.5" width="254" height="31" fill="white" stroke="black" stroke-width="3"/>
<rect x="13.5" y="162.5" width="25" height="15" fill="#9F9F9F" stroke="black" stroke-width="3"/>
<rect x="13.5" y="133.5" width="25" height="15" fill="#9F9F9F" stroke="black" stroke-width="3"/>
<rect x="13.5" y="191.5" width="25" height="15" fill="#9F9F9F" stroke="black" stroke-width="3"/>
<rect x="13.5" y="220.5" width="25" height="15" fill="#9F9F9F" stroke="black" stroke-width="3"/>
<rect x="13.5" y="249.5" width="25" height="15" fill="#9F9F9F" stroke="black" stroke-width="3"/>
<rect x="13.5" y="278.5" width="25" height="15" fill="#9F9F9F" stroke="black" stroke-width="3"/>
<rect x="13.5" y="307.5" width="25" height="15" fill="#9F9F9F" stroke="black" stroke-width="3"/>
<rect x="13.5" y="336.5" width="25" height="15" fill="#9F9F9F" stroke="black" stroke-width="3"/>
<rect x="13.5" y="365.5" width="25" height="15" fill="#9F9F9F" stroke="black" stroke-width="3"/>
<rect x="13.5" y="46.5" width="25" height="15" fill="#9F9F9F" stroke="black" stroke-width="3"/>
<rect x="227.5" y="8.5" width="17" height="17" fill="#30EA85" stroke="black" stroke-width="3"/>
<rect x="203.5" y="8.5" width="17" height="17" fill="#DD7DFF" stroke="black" stroke-width="3"/>
<rect x="179.5" y="8.5" width="17" height="17" fill="#38DBFF" stroke="black" stroke-width="3"/>
<rect x="13.5" y="75.5" width="25" height="15" fill="#9F9F9F" stroke="black" stroke-width="3"/>
<rect x="13.5" y="104.5" width="25" height="15" fill="#9F9F9F" stroke="black" stroke-width="3"/>
<rect x="51.5" y="46.5" width="77" height="15" fill="#30EA85" stroke="black" stroke-width="3"/>
<rect x="51.5" y="75.5" width="89" height="15" fill="#30EA85" stroke="black" stroke-width="3"/>
<rect x="51.5" y="104.5" width="66" height="15" fill="#30EA85" stroke="black" stroke-width="3"/>
<rect x="51.5" y="162.5" width="186" height="15" fill="#38DBFF" stroke="black" stroke-width="3"/>
<rect x="51.5" y="307.5" width="186" height="15" fill="#38DBFF" stroke="black" stroke-width="3"/>
<rect x="51.5" y="191.5" width="114" height="15" fill="#FFF503" stroke="black" stroke-width="3"/>
<rect x="51.5" y="336.5" width="167" height="15" fill="#FFF503" stroke="black" stroke-width="3"/>
<rect x="51.5" y="220.5" width="135" height="15" fill="#DD7DFF" stroke="black" stroke-width="3"/>
<rect x="51.5" y="365.5" width="77" height="15" fill="#DD7DFF" stroke="black" stroke-width="3"/>
<rect x="51.5" y="249.5" width="114" height="15" fill="#DD7DFF" stroke="black" stroke-width="3"/>
<rect x="285.5" y="25.5" width="97" height="97" fill="white" stroke="black" stroke-width="3"/>
<g clip-path="url(#clip1_4_266)">
<path d="M343.031 44.1406C341.039 43.5664 338.965 44.7266 338.391 46.7187L323.391 99.2187C322.816 101.211 323.977 103.285 325.969 103.859C327.961 104.434 330.035 103.273 330.609 101.281L345.609 48.7812C346.184 46.7891 345.023 44.7148 343.031 44.1406V44.1406ZM352.477 58.2148C351.012 59.6797 351.012 62.0586 352.477 63.5234L362.941 74L352.465 84.4766C351 85.9414 351 88.3203 352.465 89.7852C353.93 91.25 356.309 91.25 357.773 89.7852L370.898 76.6602C372.363 75.1953 372.363 72.8164 370.898 71.3516L357.773 58.2266C356.309 56.7617 353.93 56.7617 352.465 58.2266L352.477 58.2148ZM316.535 58.2148C315.07 56.75 312.691 56.75 311.227 58.2148L298.102 71.3398C296.637 72.8047 296.637 75.1836 298.102 76.6484L311.227 89.7734C312.691 91.2383 315.07 91.2383 316.535 89.7734C318 88.3086 318 85.9297 316.535 84.4648L306.059 74L316.535 63.5234C318 62.0586 318 59.6797 316.535 58.2148Z" fill="black"/>
</g>
</g>
<defs>
<clipPath id="clip0_4_266">
<rect width="499" height="409" fill="white"/>
</clipPath>
<clipPath id="clip1_4_266">
<rect width="75" height="60" fill="white" transform="translate(297 44)"/>
</clipPath>
</defs>
</svg>
